# xmcd
#
# Track frame offsets: 
#        150
#        18336
#        34859
#        54659
#        72323
#        87770
#        103219
#        117719
#        140384
#        164218
#        178508
#        191843
#        208917
#        225391
#        242160
#        272003
#
# Disc length: 3888 seconds
#
# Revision: 0
# Processed by: cddbd v1.5.2PL0 Copyright (c) Steve Scherf et al.
# Submitted via: ExactAudioCopyFreeDBPlugin 1.0
#
DISCID=f00f2e10
DTITLE=Texas Slim - That's Who I Am
DYEAR=2014
DGENRE=Blues
TTITLE0=Sweet Tooth Blues
TTITLE1=Love Somebody
TTITLE2=Built To Last
TTITLE3=That's Who I Am
TTITLE4=Wailing Blues
TTITLE5=Rock Hauler
TTITLE6=Stop Doggin Me Baby
TTITLE7=Everytime I Go To Houston
TTITLE8=Coyote Moon Blues
TTITLE9=Have Coffee With Me
TTITLE10=Lazy Girl
TTITLE11=Trouble Knockin
TTITLE12=Jelly Roll King
TTITLE13=Attack Of The Mosquitos
TTITLE14=Too Wild To Tame
TTITLE15=Lightning Boogie
EXTD=
EXTT0=
EXTT1=
EXTT2=
EXTT3=
EXTT4=
EXTT5=
EXTT6=
EXTT7=
EXTT8=
EXTT9=
EXTT10=
EXTT11=
EXTT12=
EXTT13=
EXTT14=
EXTT15=
PLAYORDER=
